<svg width="44" height="44" viewBox="0 0 44 44" fill="none" xmlns="http://www.w3.org/2000/svg">
<path d="M22.1596 20.87C22.0596 20.86 21.9396 20.86 21.8296 20.87C19.4496 20.79 17.5596 18.84 17.5596 16.44C17.5596 13.99 19.5396 12 21.9996 12C24.4496 12 26.4396 13.99 26.4396 16.44C26.4296 18.84 24.5396 20.79 22.1596 20.87Z" stroke="#A1E6F6" stroke-width="1.5" stroke-linecap="round" stroke-linejoin="round"/>
<path d="M17.1597 24.56C14.7397 26.18 14.7397 28.82 17.1597 30.43C19.9097 32.27 24.4197 32.27 27.1697 30.43C29.5897 28.81 29.5897 26.17 27.1697 24.56C24.4297 22.73 19.9197 22.73 17.1597 24.56Z" stroke="#A1E6F6" stroke-width="1.5" stroke-linecap="round" stroke-linejoin="round"/>
</svg>
