<svg width="32" height="32" viewBox="0 0 32 32" fill="none" xmlns="http://www.w3.org/2000/svg">
<path fill-rule="evenodd" clip-rule="evenodd" d="M22.9628 8.02959C23.2187 8.15772 23.4134 8.38224 23.5039 8.65381C23.5944 8.92538 23.5734 9.22177 23.4455 9.47787L22.1776 12.0159C23.6055 13.0103 24.7716 14.3353 25.5765 15.878C26.3814 17.4206 26.8012 19.1351 26.8 20.8751V21.9551C26.8 22.528 26.5724 23.0774 26.1674 23.4825C25.7623 23.8875 25.2129 24.1151 24.64 24.1151H7.36001C6.78715 24.1151 6.23774 23.8875 5.83266 23.4825C5.42759 23.0774 5.20002 22.528 5.20002 21.9551V20.8751C5.19867 19.1349 5.61836 17.4202 6.42326 15.8774C7.22816 14.3345 8.39439 13.0093 9.82241 12.0148L8.55449 9.47787C8.48584 9.35056 8.44346 9.21076 8.42987 9.06676C8.41628 8.92277 8.43174 8.77751 8.47535 8.6396C8.51897 8.5017 8.58984 8.37396 8.68375 8.26396C8.77767 8.15397 8.89273 8.06396 9.0221 7.99927C9.15146 7.93459 9.29251 7.89655 9.43685 7.88741C9.5812 7.87827 9.72591 7.89822 9.86241 7.94608C9.9989 7.99393 10.1244 8.06871 10.2314 8.16598C10.3385 8.26326 10.4249 8.38104 10.4855 8.51235L11.7103 10.9607C13.0644 10.3746 14.5245 10.0732 16 10.0751C17.5239 10.0751 18.9754 10.3905 20.2898 10.9607L21.5145 8.51235C21.6426 8.25637 21.8671 8.06174 22.1387 7.97122C22.4103 7.8807 22.7067 7.90169 22.9628 8.02959ZM11.14 16.5551C10.7104 16.5551 10.2983 16.7258 9.9945 17.0296C9.69069 17.3334 9.52001 17.7455 9.52001 18.1751C9.52001 18.6048 9.69069 19.0168 9.9945 19.3206C10.2983 19.6244 10.7104 19.7951 11.14 19.7951C11.5697 19.7951 11.9817 19.6244 12.2855 19.3206C12.5893 19.0168 12.76 18.6048 12.76 18.1751C12.76 17.7455 12.5893 17.3334 12.2855 17.0296C11.9817 16.7258 11.5697 16.5551 11.14 16.5551ZM20.86 16.5551C20.4304 16.5551 20.0183 16.7258 19.7145 17.0296C19.4107 17.3334 19.24 17.7455 19.24 18.1751C19.24 18.6048 19.4107 19.0168 19.7145 19.3206C20.0183 19.6244 20.4304 19.7951 20.86 19.7951C21.2897 19.7951 21.7017 19.6244 22.0055 19.3206C22.3093 19.0168 22.48 18.6048 22.48 18.1751C22.48 17.7455 22.3093 17.3334 22.0055 17.0296C21.7017 16.7258 21.2897 16.5551 20.86 16.5551Z" fill="white"/>
</svg>
