<svg width="36" height="36" viewBox="0 0 36 36" fill="none" xmlns="http://www.w3.org/2000/svg">
<g clip-path="url(#clip0_1022_186)">
<path d="M27 22.8954C26.5077 23.9853 26.2723 24.4726 25.6401 25.4357C24.7569 26.7808 23.5098 28.4592 21.968 28.4707C20.5966 28.4823 20.2426 27.5759 18.3814 27.5908C16.5202 27.5998 16.1325 28.4872 14.7595 28.4732C13.2177 28.4592 12.0373 26.947 11.1532 25.6045C8.68121 21.8385 8.42026 17.4246 9.94806 15.0761C11.0289 13.4109 12.7394 12.4329 14.3454 12.4329C15.9811 12.4329 17.0092 13.3318 18.3617 13.3318C19.6738 13.3318 20.4731 12.4305 22.3647 12.4305C23.7954 12.4305 25.3084 13.21 26.3892 14.5551C22.8529 16.4928 23.4274 21.5438 27 22.8954ZM20.9291 10.9274C21.6173 10.0441 22.1392 8.79783 21.9499 7.52686C20.8271 7.60341 19.5141 8.32039 18.7469 9.24892C18.0522 10.0943 17.4759 11.3505 17.7007 12.5655C18.9255 12.605 20.1932 11.8748 20.9291 10.9274Z" fill="white"/>
</g>
<defs>
<clipPath id="clip0_1022_186">
<rect width="24" height="20.9465" fill="white" transform="translate(6 7.52686)"/>
</clipPath>
</defs>
</svg>
