<svg width="44" height="44" viewBox="0 0 44 44" fill="none" xmlns="http://www.w3.org/2000/svg">
<g clip-path="url(#clip0_1022_2389)">
<path fill-rule="evenodd" clip-rule="evenodd" d="M12.2002 18.4317C12.2079 18.4189 12.2161 18.4063 12.2243 18.3939C13.5465 16.3347 15.6322 15.1295 17.5935 15.1295C19.5907 15.1295 20.8462 16.2369 22.4971 16.2369C24.0989 16.2369 25.0746 15.1279 27.3836 15.1279C29.1282 15.1279 30.9779 16.0888 32.2954 17.7504C31.9311 17.9522 31.6025 18.1813 31.3088 18.4331L12.2002 18.4317Z" fill="#CDCDCD"/>
<path fill-rule="evenodd" clip-rule="evenodd" d="M25.6322 13.2721C26.4703 12.1834 27.1078 10.646 26.8767 9.07422C25.5064 9.16923 23.9037 10.0517 22.9675 11.2004C22.118 12.244 21.4167 13.7916 21.6898 15.295C23.1858 15.3421 24.7334 14.4385 25.6322 13.2721Z" fill="#CDCDCD"/>
<path fill-rule="evenodd" clip-rule="evenodd" d="M12.2138 18.4121C11.6494 19.3139 11.2404 20.6059 11.1367 21.7396H29.4668C29.6648 20.4993 30.3231 19.3144 31.3665 18.4135L12.2138 18.4121Z" fill="#CDCDCD"/>
<path fill-rule="evenodd" clip-rule="evenodd" d="M11.2321 25.0313C11.0526 23.8727 11.0235 22.7557 11.1363 21.7309L29.4653 21.7305C29.286 22.8418 29.4364 23.9983 29.8899 25.032L11.2321 25.0313Z" fill="#CDCDCD"/>
<path fill-rule="evenodd" clip-rule="evenodd" d="M12.1282 28.3314C11.6954 27.2226 11.399 26.109 11.2324 25.0312L29.8902 25.032C30.4678 26.3492 31.5368 27.4682 33.042 28.0433C32.9972 28.1439 32.9541 28.2401 32.9126 28.3328L12.1282 28.3314Z" fill="#CDCDCD"/>
<path fill-rule="evenodd" clip-rule="evenodd" d="M32.9123 28.3325C32.3955 29.4816 32.096 30.078 31.3808 31.179C31.2846 31.3268 31.1852 31.4781 31.0817 31.6307L13.8596 31.6323C13.8044 31.5492 13.7498 31.4661 13.6959 31.3837C13.052 30.3918 12.5308 29.3634 12.1279 28.3311L32.9123 28.3325Z" fill="#CDCDCD"/>
<path fill-rule="evenodd" clip-rule="evenodd" d="M31.0815 31.6311C30.028 33.1921 28.6136 34.9099 26.8973 34.9262C25.2227 34.9416 24.7931 33.8239 22.521 33.8365C20.249 33.8493 19.7747 34.9457 18.1 34.9298C16.3095 34.9131 14.9192 33.2261 13.8594 31.6327L31.0815 31.6311Z" fill="#CDCDCD"/>
</g>
<defs>
<clipPath id="clip0_1022_2389">
<rect width="22.1351" height="26" fill="white" transform="translate(11 9)"/>
</clipPath>
</defs>
</svg>
