<?xml version="1.0" encoding="UTF-8"?>
<svg xmlns="http://www.w3.org/2000/svg" xmlns:xlink="http://www.w3.org/1999/xlink" width="21px" height="26px" viewBox="0 0 21 25" version="1.1">
<g id="surface1">
<path style=" stroke:none;fill-rule:nonzero;fill:#CDCDCD;fill-opacity:1;" d="M 20.332031 8.523438 C 20.183594 8.636719 17.539062 10.078125 17.539062 13.285156 C 17.539062 16.996094 20.902344 18.308594 21.003906 18.339844 C 20.988281 18.421875 20.46875 20.136719 19.230469 21.886719 C 18.125 23.425781 16.972656 24.964844 15.21875 24.964844 C 13.464844 24.964844 13.011719 23.976562 10.988281 23.976562 C 9.015625 23.976562 8.3125 24.996094 6.707031 24.996094 C 5.101562 24.996094 3.984375 23.574219 2.695312 21.824219 C 1.203125 19.765625 0 16.574219 0 13.546875 C 0 8.683594 3.261719 6.109375 6.46875 6.109375 C 8.175781 6.109375 9.597656 7.191406 10.667969 7.191406 C 11.6875 7.191406 13.277344 6.042969 15.214844 6.042969 C 15.953125 6.042969 18.59375 6.109375 20.332031 8.523438 Z M 14.296875 3.984375 C 15.097656 3.0625 15.664062 1.78125 15.664062 0.503906 C 15.664062 0.324219 15.648438 0.144531 15.617188 0 C 14.308594 0.046875 12.757812 0.84375 11.820312 1.894531 C 11.085938 2.703125 10.398438 3.984375 10.398438 5.28125 C 10.398438 5.476562 10.433594 5.671875 10.449219 5.734375 C 10.53125 5.75 10.664062 5.765625 10.800781 5.765625 C 11.96875 5.765625 13.445312 5.007812 14.296875 3.984375 Z M 14.296875 3.984375 "/>
</g>
</svg>
