<svg width="44" height="44" viewBox="0 0 44 44" fill="none" xmlns="http://www.w3.org/2000/svg">
<path d="M32.9999 28.6285C32.9999 29.6329 32.608 30.5965 31.9107 31.3068C31.2134 32.0172 30.2677 32.4163 29.2816 32.4163H14.0986C13.2768 32.4163 12.4888 32.0836 11.9075 31.4918C11.3266 30.8997 11 30.097 11 29.2598V19.1588C11 18.3215 11.3266 17.5187 11.9075 16.9268C12.4888 16.3347 13.2768 16.0023 14.0986 16.0023H15.9578V14.7396C15.9578 13.9024 16.2842 13.0996 16.8654 12.5075C17.4464 11.9157 18.2346 11.583 19.0564 11.583H29.9014C30.7232 11.583 31.5112 11.9157 32.0924 12.5075C32.6734 13.0996 33 13.9024 33 14.7396L32.9999 28.6285ZM15.9577 17.2649H14.0985C13.6054 17.2649 13.1325 17.4644 12.7839 17.8195C12.4353 18.1747 12.2394 18.6565 12.2394 19.1589V29.2599C12.2394 29.9365 12.5937 30.5616 13.1688 30.9001C13.7442 31.2385 14.4529 31.2385 15.0281 30.9001C15.6033 30.5616 15.9577 29.9365 15.9577 29.2599L15.9577 17.2649ZM31.7605 14.7396C31.7605 14.2374 31.5644 13.7556 31.2158 13.4004C30.8672 13.0453 30.3942 12.8458 29.9012 12.8458H19.0562C18.5632 12.8458 18.0903 13.0453 17.7416 13.4004C17.3928 13.7556 17.197 14.2374 17.197 14.7396V29.2597C17.197 29.9427 16.9795 30.6072 16.5773 31.1536H29.2815C29.9387 31.1536 30.5692 30.8876 31.0341 30.414C31.4991 29.9404 31.7602 29.2981 31.7602 28.6285L31.7605 14.7396Z" fill="#CDCDCD"/>
<path d="M29.0206 18.0452H20.9076C20.6515 18.0452 20.4441 17.8122 20.4441 17.5244C20.4441 17.2368 20.6515 17.0036 20.9076 17.0036H29.0206C29.2765 17.0036 29.4841 17.2368 29.4841 17.5244C29.4841 17.8122 29.2765 18.0452 29.0206 18.0452Z" fill="#CDCDCD"/>
<path d="M29.0206 21.9997H20.9076C20.6515 21.9997 20.4441 21.7666 20.4441 21.4788C20.4441 21.1913 20.6515 20.958 20.9076 20.958H29.0206C29.2765 20.958 29.4841 21.1913 29.4841 21.4788C29.4841 21.7666 29.2765 21.9997 29.0206 21.9997Z" fill="#CDCDCD"/>
</svg>
