<svg width="44" height="44" viewBox="0 0 44 44" fill="none" xmlns="http://www.w3.org/2000/svg">
<path d="M15 20H17C19 20 20 19 20 17V15C20 13 19 12 17 12H15C13 12 12 13 12 15V17C12 19 13 20 15 20Z" stroke="white" stroke-width="1.5" stroke-miterlimit="10" stroke-linecap="round" stroke-linejoin="round"/>
<path d="M27 20H29C31 20 32 19 32 17V15C32 13 31 12 29 12H27C25 12 24 13 24 15V17C24 19 25 20 27 20Z" stroke="white" stroke-width="1.5" stroke-miterlimit="10" stroke-linecap="round" stroke-linejoin="round"/>
<path d="M27 32H29C31 32 32 31 32 29V27C32 25 31 24 29 24H27C25 24 24 25 24 27V29C24 31 25 32 27 32Z" stroke="white" stroke-width="1.5" stroke-miterlimit="10" stroke-linecap="round" stroke-linejoin="round"/>
<path d="M15 32H17C19 32 20 31 20 29V27C20 25 19 24 17 24H15C13 24 12 25 12 27V29C12 31 13 32 15 32Z" stroke="white" stroke-width="1.5" stroke-miterlimit="10" stroke-linecap="round" stroke-linejoin="round"/>
</svg>
