<svg width="44" height="44" viewBox="0 0 44 44" fill="none" xmlns="http://www.w3.org/2000/svg">
<path d="M20 26.9503H16.21C12.84 26.9503 12 26.1103 12 22.7403V16.7403C12 13.3703 12.84 12.5303 16.21 12.5303H26.74C30.11 12.5303 30.95 13.3703 30.95 16.7403" stroke="#CDCDCD" stroke-linecap="round" stroke-linejoin="round"/>
<path d="M20 31.4702V26.9502" stroke="#CDCDCD" stroke-linecap="round" stroke-linejoin="round"/>
<path d="M12 22.9502H20" stroke="#CDCDCD" stroke-linecap="round" stroke-linejoin="round"/>
<path d="M16.7402 31.4697H20.0002" stroke="#CDCDCD" stroke-linecap="round" stroke-linejoin="round"/>
<path d="M32.0003 22.7998V28.5098C32.0003 30.8798 31.4103 31.4698 29.0403 31.4698H25.4903C23.1203 31.4698 22.5303 30.8798 22.5303 28.5098V22.7998C22.5303 20.4298 23.1203 19.8398 25.4903 19.8398H29.0403C31.4103 19.8398 32.0003 20.4298 32.0003 22.7998Z" stroke="#CDCDCD" stroke-linecap="round" stroke-linejoin="round"/>
<path d="M27.2445 28.25H27.2535" stroke="#CDCDCD" stroke-linecap="round" stroke-linejoin="round"/>
</svg>
