<svg width="32" height="32" viewBox="0 0 32 32" fill="none" xmlns="http://www.w3.org/2000/svg">
<g clip-path="url(#clip0_1022_7002)">
<path d="M15.4062 15.4854L7.07471 25.1842C7.16827 25.5526 7.3364 25.8924 7.56626 26.1775C7.79611 26.4627 8.0816 26.6856 8.4009 26.8294C8.7202 26.9732 9.06485 27.0339 9.40852 27.007C9.75218 26.9801 10.0858 26.8662 10.3838 26.6741L19.7583 20.7418L15.4062 15.4854Z" fill="#EA4335"/>
<path d="M23.8307 13.8368L19.7768 11.2568L15.2137 15.7061L19.7954 20.7279L23.8184 18.1756C24.1748 17.9682 24.4733 17.6565 24.6816 17.274C24.8899 16.8916 25 16.4532 25 16.0062C25 15.5592 24.8899 15.1207 24.6816 14.7383C24.4733 14.3559 24.1748 14.0441 23.8184 13.8368L23.8307 13.8368Z" fill="#FBBC04"/>
<path d="M7.07455 6.78027C7.0242 6.98714 6.99913 7.20059 7.00002 7.41488V24.5498C7.00055 24.764 7.02559 24.9773 7.07455 25.1845L15.6917 15.734L7.07455 6.78027Z" fill="#4285F4"/>
<path d="M15.4681 15.9823L19.7768 11.2571L10.4146 5.29711C10.0624 5.0679 9.66178 4.94651 9.25358 4.94532C8.24059 4.94313 7.35001 5.69016 7.07452 6.77336L15.4681 15.9823Z" fill="#34A853"/>
</g>
<defs>
<clipPath id="clip0_1022_7002">
<rect width="18" height="22.1094" fill="white" transform="translate(7 4.94531)"/>
</clipPath>
</defs>
</svg>
