<svg width="44" height="44" viewBox="0 0 44 44" fill="none" xmlns="http://www.w3.org/2000/svg">
<g clip-path="url(#clip0_1022_2865)">
<path d="M34.7471 19.4539H33.7L22 19.4724V24.6H29.347C28.2751 27.627 25.3949 29.8 22 29.8C17.6925 29.8 14.2 26.3075 14.2 22C14.2 17.6925 17.6925 14.2 22 14.2C23.9883 14.2 25.7973 14.9501 27.1746 16.1753L30.8517 12.4983C28.5299 10.3345 25.4242 9 22 9C14.8207 9 9 14.8207 9 22C9 29.1792 14.8207 35 22 35C29.1792 35 35 29.1792 35 22C35 21.1283 34.9103 20.2775 34.7471 19.4539Z" fill="#FFC107"/>
<path d="M10.4987 15.9491L14.7699 19.0815C15.9256 16.2202 18.7247 14.2 22 14.2C23.9883 14.2 25.7973 14.9501 27.1746 16.1753L30.8517 12.4983C28.5299 10.3345 25.4242 9 22 9C17.0067 9 12.6762 11.819 10.4987 15.9491Z" fill="#FF3D00"/>
<path d="M21.9996 34.9982C25.3575 34.9982 28.4086 33.7131 30.7154 31.6234L26.6919 28.2187C25.3867 29.2073 23.7643 29.7982 21.9996 29.7982C18.6183 29.7982 15.7472 27.6421 14.6656 24.6333L10.4263 27.8995C12.5778 32.1096 16.9471 34.9982 21.9996 34.9982Z" fill="#4CAF50"/>
<path d="M34.7471 19.4539H33.7L33.7002 19.452H22.0002L22 24.6H29.347C28.8321 26.054 27.897 27.3081 26.6906 28.2213L26.6926 28.22L30.7161 31.6247C30.4314 31.8834 35 28.5 35 22C35 21.1283 34.9103 20.2775 34.7471 19.4539Z" fill="#1976D2"/>
</g>
<defs>
<clipPath id="clip0_1022_2865">
<rect width="26" height="26" fill="white" transform="translate(9 9)"/>
</clipPath>
</defs>
</svg>
