<svg width="44" height="44" viewBox="0 0 44 44" fill="none" xmlns="http://www.w3.org/2000/svg">
<g clip-path="url(#clip0_1022_54)">
<path d="M21.9996 34.593C28.9547 34.593 34.593 28.9547 34.593 21.9996C34.593 15.0445 28.9547 9.40625 21.9996 9.40625C15.0445 9.40625 9.40625 15.0445 9.40625 21.9996C9.40625 28.9547 15.0445 34.593 21.9996 34.593Z" fill="url(#paint0_linear_1022_54)"/>
<path d="M15.1005 21.863C18.7706 20.2692 21.2136 19.21 22.4403 18.6962C25.9321 17.2386 26.6658 16.987 27.1379 16.9766C27.243 16.9766 27.4733 16.9974 27.6309 17.1232C27.7567 17.2282 27.7879 17.3645 27.8093 17.469C27.8301 17.574 27.8514 17.794 27.8301 17.962C27.6413 19.9541 26.8233 24.788 26.4042 27.011C26.2259 27.9548 25.8801 28.2694 25.5447 28.3006C24.8104 28.3635 24.2551 27.818 23.5525 27.3568C22.4413 26.6335 21.8225 26.1826 20.7425 25.4692C19.4945 24.6512 20.302 24.2004 21.0149 23.4667C21.2037 23.2779 24.4225 20.342 24.4854 20.0799C24.4958 20.0487 24.4958 19.9229 24.4225 19.86C24.3492 19.797 24.2441 19.8178 24.1604 19.8392C24.045 19.86 22.2837 21.0346 18.8549 23.3518C18.3515 23.6976 17.9007 23.8655 17.4919 23.8551C17.0411 23.8447 16.181 23.6034 15.531 23.3939C14.7448 23.1422 14.1156 23.006 14.1681 22.5655C14.1988 22.3346 14.5134 22.1043 15.1005 21.863Z" fill="white"/>
</g>
<defs>
<linearGradient id="paint0_linear_1022_54" x1="21.9996" y1="9.40573" x2="21.9996" y2="34.3917" gradientUnits="userSpaceOnUse">
<stop stop-color="#2AABEE"/>
<stop offset="1" stop-color="#229ED9"/>
</linearGradient>
<clipPath id="clip0_1022_54">
<rect width="26" height="26" fill="white" transform="translate(9 9)"/>
</clipPath>
</defs>
</svg>
