<svg width="36" height="36" viewBox="0 0 36 36" fill="none" xmlns="http://www.w3.org/2000/svg">
<path d="M18 4C25.7311 4 32 10.2689 32 18C32 25.7311 25.7311 32 18 32C10.2689 32 4 25.735 4 18C4 10.265 10.2689 4 18 4Z" fill="#26A17B"/>
<path d="M19.9712 16.4394V14.355H24.7351V11.1816H11.7656V14.355H16.5295V16.4394C12.6601 16.6183 9.74731 17.3844 9.74731 18.3022C9.74731 19.22 12.6601 19.9861 16.5295 20.165V26.8344H19.9751V20.165C23.8406 19.9861 26.7456 19.22 26.7456 18.3022C26.7418 17.3844 23.8368 16.6183 19.9712 16.4394ZM19.9751 19.6011C19.8779 19.605 19.3801 19.6361 18.2679 19.6361C17.3773 19.6361 16.7551 19.6128 16.5334 19.6011V19.605C13.1151 19.4533 10.5601 18.8583 10.5601 18.1466C10.5601 17.435 13.1112 16.84 16.5334 16.6883V19.0061C16.759 19.0216 17.3968 19.0605 18.2834 19.0605C19.3451 19.0605 19.8779 19.0178 19.979 19.0061V16.6805C23.3934 16.8322 25.9406 17.4272 25.9406 18.1389C25.9329 18.8505 23.3856 19.4455 19.9751 19.6011Z" fill="white"/>
</svg>
