<svg width="1152" height="447" viewBox="0 0 1152 447" fill="none" xmlns="http://www.w3.org/2000/svg">
<g opacity="0.05">
<path d="M0.642189 369V286.2L190.242 15H304.842V280.2H354.042V369H304.842V447H202.242V369H0.642189ZM209.442 127.8L108.642 280.2H209.442V127.8ZM404.297 222C404.297 153.2 417.497 99 443.897 59.4C470.697 19.8 513.697 -3.86238e-05 572.897 -3.86238e-05C632.097 -3.86238e-05 674.897 19.8 701.297 59.4C728.097 99 741.497 153.2 741.497 222C741.497 291.6 728.097 346.2 701.297 385.8C674.897 425.4 632.097 445.2 572.897 445.2C513.697 445.2 470.697 425.4 443.897 385.8C417.497 346.2 404.297 291.6 404.297 222ZM640.697 222C640.697 181.6 636.297 150.6 627.497 129C618.697 107 600.497 96 572.897 96C545.297 96 527.097 107 518.297 129C509.497 150.6 505.097 181.6 505.097 222C505.097 249.2 506.697 271.8 509.897 289.8C513.097 307.4 519.497 321.8 529.097 333C539.097 343.8 553.697 349.2 572.897 349.2C592.097 349.2 606.497 343.8 616.097 333C626.097 321.8 632.697 307.4 635.897 289.8C639.097 271.8 640.697 249.2 640.697 222ZM798.103 369V286.2L987.703 15H1102.3V280.2H1151.5V369H1102.3V447H999.703V369H798.103ZM1006.9 127.8L906.103 280.2H1006.9V127.8Z" fill="white" style="mix-blend-mode:multiply"/>
</g>
</svg>
